<svg xmlns="http://www.w3.org/2000/svg" width="800" height="800" fill="none" viewBox="0 0 24 24">
  <path stroke="#000" stroke-linejoin="round" d="M12 2a10 10 0 0 0-3.2 19.5c.5 0 .7-.2.7-.5v-1.9c-2.5.5-3.2-.6-3.3-1.1-.2-.3-.7-1.2-1-1.4-.4-.2-1-.7 0-.7.7 0 1.3.7 1.5 1 .8 1.5 2.3 1.1 2.9.9 0-.7.3-1.1.6-1.4-2.2-.2-4.5-1.1-4.5-5 0-1 .3-2 1-2.6-.1-.3-.5-1.3 0-2.7 0 0 1-.2 2.8 1a9.3 9.3 0 0 1 5 0c2-1.2 2.8-1 2.8-1 .5 1.4.2 2.4 0 2.7.7.7 1.1 1.6 1.1 2.7 0 3.8-2.3 4.7-4.6 5 .4.2.7.8.7 1.8V21c0 .3.2.6.7.5A10 10 0 0 0 12 2Z" clip-rule="evenodd"/>
</svg>
